# Blender v2.93.6 OBJ File: 'empty_room.blend'
# www.blender.org
o Cube.001
v 19.900000 4.000000 20.000000
v 19.900000 0.000000 20.000000
v 19.900000 4.000000 -20.000000
v 19.900000 0.000000 -20.000000
v 20.100000 4.000000 20.000000
v 20.100000 0.000000 20.000000
v 20.100000 4.000000 -20.000000
v 20.100000 0.000000 -20.000000
v 20.000000 4.000000 -19.900002
v 20.000000 0.000000 -19.900002
v -20.000000 4.000000 -19.900000
v -20.000000 0.000000 -19.900000
v 20.000000 4.000000 -20.100000
v 20.000000 0.000000 -20.100000
v -20.000000 4.000000 -20.100000
v -20.000000 0.000000 -20.100000
v -20.100002 4.000000 20.000000
v -20.100002 0.000000 20.000000
v -20.100002 4.000000 -20.000000
v -20.100002 0.000000 -20.000000
v -19.900002 4.000000 20.000000
v -19.900002 0.000000 20.000000
v -19.900002 4.000000 -20.000000
v -19.900002 0.000000 -20.000000
v 20.000000 4.000000 20.100000
v 20.000000 0.000000 20.100000
v -20.000000 4.000000 20.100000
v -20.000000 0.000000 20.100000
v 20.000000 4.000000 19.900000
v 20.000000 0.000000 19.900000
v -20.000000 4.000000 19.900002
v -20.000000 0.000000 19.900002
v 20.000000 4.000000 -20.000000
v -20.000000 4.000000 -20.000000
v 20.000000 4.000000 20.000000
v -20.000000 4.000000 20.000000
v 20.000000 0.000000 -20.000000
v -20.000000 0.000000 -20.000000
v 20.000000 0.000000 20.000000
v -20.000000 0.000000 20.000000
vt 0.875000 0.500000
vt 0.625000 0.750000
vt 0.625000 0.500000
vt 0.375000 1.000000
vt 0.375000 0.750000
vt 0.625000 0.000000
vt 0.375000 0.250000
vt 0.375000 0.000000
vt 0.375000 0.500000
vt 0.125000 0.750000
vt 0.125000 0.500000
vt 0.625000 0.250000
vt 0.875000 0.750000
vt 0.625000 1.000000
vt 0.875000 0.500000
vt 0.625000 0.750000
vt 0.625000 0.500000
vt 0.375000 1.000000
vt 0.375000 0.750000
vt 0.625000 0.000000
vt 0.375000 0.250000
vt 0.375000 0.000000
vt 0.375000 0.500000
vt 0.125000 0.750000
vt 0.125000 0.500000
vt 0.625000 0.250000
vt 0.875000 0.750000
vt 0.625000 1.000000
vt 0.875000 0.500000
vt 0.625000 0.750000
vt 0.625000 0.500000
vt 0.375000 1.000000
vt 0.375000 0.750000
vt 0.625000 0.000000
vt 0.375000 0.250000
vt 0.375000 0.000000
vt 0.375000 0.500000
vt 0.125000 0.750000
vt 0.125000 0.500000
vt 0.625000 0.250000
vt 0.875000 0.750000
vt 0.625000 1.000000
vt 0.875000 0.500000
vt 0.625000 0.750000
vt 0.625000 0.500000
vt 0.375000 1.000000
vt 0.375000 0.750000
vt 0.625000 0.000000
vt 0.375000 0.250000
vt 0.375000 0.000000
vt 0.375000 0.500000
vt 0.125000 0.750000
vt 0.125000 0.500000
vt 0.625000 0.250000
vt 1.000000 0.000000
vt 0.000000 1.000000
vt 0.000000 0.000000
vt 1.000000 0.000000
vt 0.000000 1.000000
vt 0.000000 0.000000
vt 0.875000 0.750000
vt 0.625000 1.000000
vt 1.000000 1.000000
vt 1.000000 1.000000
vn 0.0000 1.0000 0.0000
vn 0.0000 0.0000 -1.0000
vn 1.0000 0.0000 0.0000
vn 0.0000 -1.0000 0.0000
vn -1.0000 0.0000 0.0000
vn 0.0000 0.0000 1.0000
s off
f 5/1/1 3/2/1 1/3/1
f 3/2/2 8/4/2 4/5/2
f 7/6/3 6/7/3 8/8/3
f 2/9/4 8/10/4 6/11/4
f 1/3/5 4/5/5 2/9/5
f 5/12/6 2/9/6 6/7/6
f 5/1/1 7/13/1 3/2/1
f 3/2/2 7/14/2 8/4/2
f 7/6/3 5/12/3 6/7/3
f 2/9/4 4/5/4 8/10/4
f 1/3/5 3/2/5 4/5/5
f 5/12/6 1/3/6 2/9/6
f 13/15/1 11/16/1 9/17/1
f 11/16/5 16/18/5 12/19/5
f 15/20/2 14/21/2 16/22/2
f 10/23/4 16/24/4 14/25/4
f 9/17/6 12/19/6 10/23/6
f 13/26/3 10/23/3 14/21/3
f 13/15/1 15/27/1 11/16/1
f 11/16/5 15/28/5 16/18/5
f 15/20/2 13/26/2 14/21/2
f 10/23/4 12/19/4 16/24/4
f 9/17/6 11/16/6 12/19/6
f 13/26/3 9/17/3 10/23/3
f 21/29/1 19/30/1 17/31/1
f 19/30/2 24/32/2 20/33/2
f 23/34/3 22/35/3 24/36/3
f 18/37/4 24/38/4 22/39/4
f 17/31/5 20/33/5 18/37/5
f 21/40/6 18/37/6 22/35/6
f 21/29/1 23/41/1 19/30/1
f 19/30/2 23/42/2 24/32/2
f 23/34/3 21/40/3 22/35/3
f 18/37/4 20/33/4 24/38/4
f 17/31/5 19/30/5 20/33/5
f 21/40/6 17/31/6 18/37/6
f 29/43/1 27/44/1 25/45/1
f 27/44/5 32/46/5 28/47/5
f 31/48/2 30/49/2 32/50/2
f 26/51/4 32/52/4 30/53/4
f 25/45/6 28/47/6 26/51/6
f 29/54/3 26/51/3 30/49/3
f 34/55/1 35/56/1 33/57/1
f 38/58/1 39/59/1 37/60/1
f 29/43/1 31/61/1 27/44/1
f 27/44/5 31/62/5 32/46/5
f 31/48/2 29/54/2 30/49/2
f 26/51/4 28/47/4 32/52/4
f 25/45/6 27/44/6 28/47/6
f 29/54/3 25/45/3 26/51/3
f 34/55/1 36/63/1 35/56/1
f 38/58/1 40/64/1 39/59/1
